:FULLY-SPECIFIED
:FORCE-ALL-JOINTS-BE-3DOF
:DEGREES
679
root 5.36641 16.0845 0.918854 15.6922 -23.2553 -0.0115417
lfemur -37.2766 26.8035 -10.141
ltibia 106.959 -0 0
lfoot 21.8614 -20.6923 -0.170637
ltoes 12.2691 -0 0
rfemur -38.5918 -11.3774 26.2633
rtibia 61.7747 -0 0
rfoot -24.43 -6.26647 -0.0115357
rtoes 0.0389592 -0 0
lowerback 0.980716 -6.69157 0.0814152
upperback -1.88387 -8.91753 0.954933
thorax -2.34147 -4.45025 1.19221
lowerneck -9.45479 -3.61607 0.700248
upperneck 2.4658 -5.02412 2.09622
head 2.45586 -2.42676 0.298198
lclavicle 1.26994e-13 1.87228e-14 -1.62661e-30
lhumerus 15.3052 -62.051 53.9201
lradius 92.1678 -0 0
lwrist 29.7868 0 0
lhand -14.4445 -1.23553 -0.00099461
lfingers 7.12502 -0 0
lthumb 11.7005 28.4183 -0.000799386
rclavicle 1.26994e-13 1.87228e-14 -1.62661e-30
rhumerus -46.0003 -9.25193 -44.3672
rradius 77.6498 -0 0
rwrist -21.856 0 0
rhand -26.8689 -47.7669 0.00392104
rfingers 7.12502 -0 0
rthumb -0.293483 -77.7465 0.0037921
680
root 5.35757 16.1485 1.05149 15.4457 -24.6551 -0.0188455
lfemur -38.6408 26.5214 -7.68396
ltibia 110.835 0 0
lfoot 23.3716 -22.1735 0
ltoes 13.8335 0 0
rfemur -37.0493 -10.5986 25.6188
rtibia 60.2502 0 0
rfoot -24.182 -5.83958 0
rtoes 0.136471 0 0
lowerback 1.2829 -6.68443 0.0475016
upperback -1.8514 -8.91007 0.842014
thorax -2.48965 -4.4449 1.13259
lowerneck -9.24205 -3.56945 0.702065
upperneck 2.62229 -4.96469 2.15003
head 2.47081 -2.39551 0.320897
lclavicle 1.30303e-13 2.06736e-14 0
lhumerus 18.1137 -60.1086 49.3292
lradius 92.6218 0 0
lwrist 30.0796 0 0
lhand -14.8207 -1.41853 0
lfingers 7.12502 0 0
lthumb 11.3377 28.255 0
rclavicle 1.30303e-13 2.06736e-14 0
rhumerus -45.2935 -8.74488 -42.9472
rradius 79.7625 0 0
rwrist -21.6464 0 0
rhand -26.8969 -47.4337 0
rfingers 7.12502 0 0
rthumb -0.320506 -797.413 0
681
root 5.34689 16.2223 1.18541 15.1926 -25.985 0.0184046
lfemur -39.9488 26.2368 -4.87186
ltibia 114.45 -0 0
lfoot 24.1504 -22.9205 0.18337
ltoes 15.0681 -0 0
rfemur -35.4577 -9.93268 24.9549
rtibia 58.5859 -0 0
rfoot -23.9706 -5.24093 0.00117776
rtoes 0.653211 -0 0
lowerback 1.55344 -6.66854 -0.0334412
upperback -1.82093 -8.89416 0.689497
thorax -2.62149 -4.43471 1.05394
lowerneck -8.98055 -3.56872 0.673547
upperneck 2.78856 -4.96611 2.27027
head 2.48338 -2.39323 0.367747
lclavicle 1.21514e-13 2.07849e-14 -3.04228e-31
lhumerus 21.0168 -58.0017 44.6518
lradius 92.7989 -0 0
lwrist 30.3927 0 0
lhand -15.1942 -1.5963 -0.00137905
lfingers 7.12502 -0 0
lthumb 10.9775 28.0974 -0.00119275
rclavicle 1.21514e-13 2.07849e-14 -3.04228e-31
rhumerus -44.7375 -8.30548 -41.3
rradius 81.9811 -0 0
rwrist -21.1396 0 0
rhand -26.9756 -46.9532 -0.00344563
rfingers 7.12502 -0 0
rthumb -0.396523 -76.9328 -0.0032744
682
root 5.3343 16.3031 1.31908 14.9112 -27.2504 0.102985
lfemur -41.2412 25.9642 -1.66608
ltibia 117.952 -0 0
lfoot 24.2497 -23.1062 0.27957
ltoes 16.0424 -0 0
rfemur -33.8309 -9.37274 24.2812
rtibia 56.8582 -0 0
rfoot -23.8667 -4.5085 -0.0168137
rtoes 1.5466 -0 0
lowerback 1.82093 -6.6488 -0.175737
upperback -1.78725 -8.87666 0.496563
thorax -2.74579 -4.42289 0.966957
lowerneck -8.66504 -3.60619 0.615084
upperneck 2.96739 -5.01884 2.45489
head 2.49354 -2.41486 0.438607
lclavicle 1.02536e-13 1.93001e-14 -2.0814e-30
lhumerus 23.9573 -55.6527 39.8723
lradius 92.7699 -0 0
lwrist 30.7394 0 0
lhand -15.5366 -1.75531 -0.00428157
lfingers 7.12502 -0 0
lthumb 10.6472 27.9566 -0.00386889
rclavicle 1.02536e-13 1.93001e-14 -2.0814e-30
rhumerus -44.2918 -7.87837 -39.4683
rradius 84.3836 -0 0
rwrist -20.3589 0 0
rhand -27.08 -46.3236 -0.00470266
rfingers 7.12502 -0 0
rthumb -0.497416 -76.3045 -0.00435694
683
root 5.3208 16.3931 1.45401 14.6158 -28.4942 0.22673
lfemur -42.4883 25.6923 1.7579
ltibia 121.248 -0 0
lfoot 23.8199 -22.8217 0.296671
ltoes 16.8525 -0 0
rfemur -32.1491 -8.88227 23.5836
rtibia 54.9716 -0 0
rfoot -23.7095 -3.68954 -0.0385098
rtoes 2.65898 -0 0
lowerback 2.07781 -6.6178 -0.362322
upperback -1.75276 -8.84746 0.273108
thorax -2.86178 -4.40479 0.871056
lowerneck -8.31799 -3.67217 0.53603
upperneck 3.151 -5.1109 2.68642
head 2.50206 -2.45473 0.526627
lclavicle 7.69555e-14 1.68138e-14 -3.85185e-30
lhumerus 26.6788 -53.0919 35.2775
lradius 92.5542 -0 0
lwrist 31.0895 0 0
lhand -15.8658 -1.91201 -0.0072081
lfingers 7.12502 -0 0
lthumb 10.3298 27.8168 -0.00661866
rclavicle 7.69555e-14 1.68138e-14 -3.85185e-30
rhumerus -43.9088 -7.4802 -37.5047
rradius 86.864 -0 0
rwrist -19.3901 0 0
rhand -27.2251 -45.6019 -0.00455615
rfingers 7.12502 -0 0
rthumb -0.637544 -75.5843 -0.0040687
684
root 5.30738 16.4945 1.59171 14.3213 -29.759 0.381098
lfemur -43.6606 25.3995 5.2249
ltibia 124.244 -0 0
lfoot 23.0089 -22.1556 0.255265
ltoes 17.5945 -0 0
rfemur -30.3939 -8.42355 22.8508
rtibia 52.8307 -0 0
rfoot -23.3376 -2.83128 -0.0527047
rtoes 3.8327 -0 0
lowerback 2.31644 -6.56836 -0.576076
upperback -1.7199 -8.79648 0.0290472
thorax -2.96868 -4.37578 0.76563
lowerneck -7.96186 -3.75706 0.445836
upperneck 3.33167 -5.23013 2.94753
head 2.50975 -2.50717 0.624957
lclavicle 4.83575e-14 1.39207e-14 -4.46343e-30
lhumerus 29.0139 -50.3831 31.066
lradius 92.1711 -0 0
lwrist 31.4128 0 0
lhand -16.1994 -2.08285 -0.00895671
lfingers 7.12502 -0 0
lthumb 10.0079 27.6621 -0.00830111
rclavicle 4.83575e-14 1.39207e-14 -4.46343e-30
rhumerus -43.543 -7.12942 -35.461
rradius 89.3163 -0 0
rwrist -18.3187 0 0
rhand -27.4256 -44.8451 -0.00350691
rfingers 7.12502 -0 0
rthumb -0.831285 -74.8282 -0.00295373
685
root 5.29505 16.6097 1.73366 14.0429 -31.088 0.557232
lfemur -44.7299 25.0538 8.55984
ltibia 126.847 -0 0
lfoot 21.964 -21.1959 0.179417
ltoes 18.3645 -0 0
rfemur -28.5482 -7.9577 22.0738
rtibia 50.3401 -0 0
rfoot -22.5893 -1.98088 -0.0527914
rtoes 4.91011 -0 0
lowerback 2.52915 -6.49354 -0.79984
upperback -1.69124 -8.71368 -0.225681
thorax -3.06572 -4.33121 0.650061
lowerneck -7.61919 -3.85145 0.354122
upperneck 3.50178 -5.36421 3.22094
head 2.51743 -2.56651 0.726746
lclavicle 2.03284e-14 1.12154e-14 -3.56146e-30
lhumerus 30.8675 -47.6147 27.3662
lradius 91.64 -0 0
lwrist 31.6789 0 0
lhand -16.5553 -2.28429 -0.00862602
lfingers 7.12502 -0 0
lthumb 9.66451 27.4766 -0.00804884
rclavicle 2.03284e-14 1.12154e-14 -3.56146e-30
rhumerus -43.1513 -6.84679 -33.3884
rradius 91.6345 -0 0
rwrist -17.2306 0 0
rhand -27.6966 -44.1102 -0.00192744
rfingers 7.12502 -0 0
rthumb -1.09304 -74.0923 -0.00142569
686
root 5.28482 16.7409 1.88138 13.7957 -32.5242 0.745865
lfemur -45.6688 24.6149 11.5877
ltibia 128.963 -0 0
lfoot 20.8326 -20.0308 0.0899569
ltoes 19.2584 -0 0
rfemur -26.5965 -7.44469 21.2466
rtibia 47.4044 -0 0
rfoot -21.3028 -1.18508 -0.0357789
rtoes 5.73356 -0 0
lowerback 2.70823 -6.38657 -1.01645
upperback -1.66939 -8.58904 -0.481131
thorax -3.1522 -4.26643 0.523727
lowerneck -7.31257 -3.94612 0.270698
upperneck 3.65387 -5.50065 3.48949
head 2.52594 -2.62705 0.825143
lclavicle -3.54601e-15 9.29246e-15 -1.6865e-30
lhumerus 32.195 -44.8898 24.2592
lradius 90.9804 -0 0
lwrist 31.8576 0 0
lhand -16.9513 -2.53281 -0.00566932
lfingers 7.12502 -0 0
lthumb 9.28234 27.2445 -0.00532033
rclavicle -3.54601e-15 9.29246e-15 -1.6865e-30
rhumerus -42.6927 -6.65552 -31.3377
rradius 93.7126 -0 0
rwrist -16.2113 0 0
rhand -28.053 -43.4542 -0.000366149
rfingers 7.12502 -0 0
rthumb -1.43723 -73.4329 -5.55069e-05
687
root 5.27769 16.8902 2.03636 13.5959 -34.111 0.937036
lfemur -46.4501 24.0359 14.1336
ltibia 130.5 0 0
lfoot 19.7625 -18.7494 0
ltoes 20.3725 0 0
rfemur -24.525 -6.84335 20.3663
rtibia 43.9283 0 0
rfoot -19.3159 -0.489827 0
rtoes 6.1454 0 0
lowerback 2.846 -6.24087 -1.20878
upperback -1.65705 -8.41257 -0.727365
thorax -3.22741 -4.17679 0.386005
lowerneck -7.06466 -4.03202 0.205555
upperneck 3.78068 -5.62679 3.73611
head 2.53618 -2.68314 0.913297
lclavicle -1.96797e-14 8.74653e-15 0
lhumerus 32.9805 -42.3178 21.8014
lradius 90.2115 0 0
lwrist 31.9186 0 0
lhand -17.4053 -2.84492 0
lfingers 7.12502 0 0
lthumb 8.84422 26.9498 0
rclavicle -1.96797e-14 8.74653e-15 0
rhumerus -42.1282 -6.58091 -29.3598
rradius 95.4446 0 0
rwrist -15.3465 0 0
rhand -28.5098 -42.9341 0
rfingers 7.12502 0 0
rthumb -1.87832 -792.906 0
688
root 5.27265 17.0622 2.1983 13.4327 -35.8316 1.14943
lfemur -47.0912 23.2522 16.2533
ltibia 131.399 -0 0
lfoot 18.5898 -17.1391 -0.100407
ltoes 21.7846 -0 0
rfemur -22.1507 -6.10702 19.3898
rtibia 39.5109 -0 0
rfoot -16.4018 0.193724 0.0779498
rtoes 6.08208 -0 0
lowerback 2.93218 -6.04978 -1.39161
upperback -1.65648 -8.17673 -0.987984
thorax -3.2891 -4.05851 0.219372
lowerneck -6.86911 -4.11743 0.157635
upperneck 3.89664 -5.75539 3.98899
head 2.5533 -2.74042 0.999905
lclavicle -2.81857e-14 9.88707e-15 8.16113e-31
lhumerus 33.4242 -39.8796 19.8385
lradius 89.2928 -0 0
lwrist 31.8034 0 0
lhand -17.9572 -3.28207 0.00961308
lfingers 7.12502 -0 0
lthumb 8.31151 26.532 0.00904971
rclavicle -2.81857e-14 9.88707e-15 8.16113e-31
rhumerus -41.5181 -6.65779 -27.3438
rradius 96.8389 -0 0
rwrist -14.6206 0 0
rhand -29.1307 -42.5485 -0.00155473
rfingers 7.12502 -0 0
rthumb -2.47783 -72.5091 -0.00192538
